HIERARCHY
ROOT Hips
{
  OFFSET 0.000000 0.000000 0.000000
  CHANNELS 6 Xposition Yposition Zposition Xrotation Yrotation Zrotation
  JOINT Spine
  {
    OFFSET -6.423313 -17.000212 -13.334487
    CHANNELS 3 Xrotation Yrotation Zrotation
    JOINT Chest
    {
      OFFSET -6.423313 -17.000212 -13.334487
      CHANNELS 3 Xrotation Yrotation Zrotation
      JOINT Neck
      {
        OFFSET -8.565987 -10.465851 -10.311200
        CHANNELS 3 Xrotation Yrotation Zrotation
        JOINT Head
        {
          OFFSET -6.506337 7.210322 -3.531532
          CHANNELS 3 Xrotation Yrotation Zrotation
          End Site
          {
            OFFSET 0.0 0.0 5.0
          }
        }
      }
      JOINT LeftShoulder
      {
        OFFSET 16.191032 -0.222631 -5.090955
        CHANNELS 3 Xrotation Yrotation Zrotation
        JOINT LeftArm
        {
          OFFSET 10.448869 20.915173 -1.238295
          CHANNELS 3 Xrotation Yrotation Zrotation
          JOINT LeftForeArm
          {
            OFFSET 6.900823 23.754111 -0.858906
            CHANNELS 3 Xrotation Yrotation Zrotation
            JOINT LeftHand
            {
              OFFSET 0.929018 7.328410 -2.677089
              CHANNELS 3 Xrotation Yrotation Zrotation
              End Site
              {
                OFFSET 0.0 0.0 5.0
              }
            }
          }
        }
      }
      JOINT RightShoulder
      {
        OFFSET -16.191032 0.222631 5.090955
        CHANNELS 3 Xrotation Yrotation Zrotation
        JOINT RightArm
        {
          OFFSET -13.712075 14.695798 8.321647
          CHANNELS 3 Xrotation Yrotation Zrotation
          JOINT RightForeArm
          {
            OFFSET -17.210048 12.326384 -1.738171
            CHANNELS 3 Xrotation Yrotation Zrotation
            JOINT RightHand
            {
              OFFSET 5.000000 0.000000 0.000000
              CHANNELS 3 Xrotation Yrotation Zrotation
              End Site
              {
                OFFSET 0.0 0.0 5.0
              }
            }
          }
        }
      }
    }
  }
  JOINT LeftUpLeg
  {
    OFFSET 12.282434 -0.310965 -0.080493
    CHANNELS 3 Xrotation Yrotation Zrotation
    JOINT LeftLeg
    {
      OFFSET 9.663075 41.630832 -4.887251
      CHANNELS 3 Xrotation Yrotation Zrotation
      JOINT LeftFoot
      {
        OFFSET -5.787469 21.882853 26.702196
        CHANNELS 3 Xrotation Yrotation Zrotation
        JOINT LeftToeBase
        {
          OFFSET 2.886885 12.176341 -6.834447
          CHANNELS 3 Xrotation Yrotation Zrotation
          End Site
          {
            OFFSET 0.0 0.0 5.0
          }
        }
      }
    }
  }
  JOINT RightUpLeg
  {
    OFFSET -12.282434 0.310965 0.080493
    CHANNELS 3 Xrotation Yrotation Zrotation
    JOINT RightLeg
    {
      OFFSET -1.472860 28.795469 -20.184857
      CHANNELS 3 Xrotation Yrotation Zrotation
      JOINT RightFoot
      {
        OFFSET 0.086358 39.286014 3.546105
        CHANNELS 3 Xrotation Yrotation Zrotation
        JOINT RightToeBase
        {
          OFFSET -4.442337 10.512209 -13.824183
          CHANNELS 3 Xrotation Yrotation Zrotation
          End Site
          {
            OFFSET 0.0 0.0 5.0
          }
        }
      }
    }
  }
}
MOTION
Frames: 12
Frame Time: 0.016667
0.000000 0.000000 0.000000 0.000000 0.000000 0.000000 0.000000 0.000000 0.000000 0.000000 0.000000 0.000000 0.000000 0.000000 0.000000 0.000000 0.000000 0.000000 0.000000 0.000000 0.000000 0.000000 0.000000 0.000000 0.000000 0.000000 0.000000 0.000000 0.000000 0.000000 0.000000 0.000000 0.000000 0.000000 0.000000 0.000000 -37.833432 -22.114571 -120.614117 0.000000 0.000000 0.000000 0.000000 0.000000 0.000000 0.000000 0.000000 0.000000 0.000000 0.000000 0.000000 0.000000 0.000000 0.000000 0.000000 0.000000 0.000000 0.000000 0.000000 0.000000 0.000000 0.000000 0.000000 0.000000 0.000000 0.000000
0.000000 0.000000 0.000000 0.004500 0.175617 0.010792 -3.813587 1.356959 0.145793 0.153164 3.010223 0.383489 11.116180 10.180173 -0.512197 0.000000 0.000000 0.000000 -5.663503 2.823044 -0.072918 -0.135307 0.029820 -0.271798 1.391699 -0.092738 0.222769 0.000000 0.000000 0.000000 -4.626265 -3.758428 -1.012352 2.605936 3.504325 -0.701551 -57.318160 -28.374657 -130.355222 0.000000 0.000000 0.000000 -2.838122 0.490194 -1.825437 -4.582941 -0.510909 -0.576132 -2.585560 0.987984 0.721857 0.000000 0.000000 0.000000 -6.746107 1.778580 3.417730 -2.112686 0.377193 -3.420220 -0.018923 -0.003084 0.003736 0.000000 0.000000 0.000000
0.000000 0.000000 0.000000 0.006278 0.244356 0.020720 -6.593210 2.281553 0.370986 -0.069088 4.531211 -0.474998 14.068140 13.559196 0.056628 0.000000 0.000000 0.000000 -8.912879 4.411851 0.719559 -1.082526 0.296909 -0.673502 1.179351 -0.524103 -0.990540 0.000000 0.000000 0.000000 -5.212914 -3.454771 -2.344629 3.897622 5.372247 -0.388924 -63.570956 -31.825080 -130.588511 0.000000 0.000000 0.000000 -4.508990 0.820956 -2.911415 -4.430077 -1.133684 -0.072941 -1.526024 1.051874 1.278708 0.000000 0.000000 0.000000 -8.747369 2.125250 4.295355 -4.855667 0.623952 -4.601944 -0.245511 -0.140079 -0.027982 0.000000 0.000000 0.000000
0.000000 0.000000 0.000000 0.007666 0.299425 0.021578 -6.334268 2.552612 -0.054786 -0.067715 4.198084 -0.448849 14.630286 12.502407 -2.107172 0.000000 0.000000 0.000000 -8.287596 4.074994 1.720823 1.557130 -0.558767 -2.073622 2.995191 -2.350920 -4.943054 0.000000 0.000000 0.000000 -6.812880 -2.550666 -6.025212 4.475399 5.763898 -2.055642 -77.199195 -35.651845 -136.118670 0.000000 0.000000 0.000000 -7.066155 1.458595 -3.281658 -5.270576 -1.948557 0.349693 1.164891 2.633672 5.111929 0.000000 0.000000 0.000000 -8.737662 2.680662 5.225961 -3.107263 0.663139 -5.572225 -1.137764 -1.343461 -0.677011 0.000000 0.000000 0.000000
0.000000 0.000000 0.000000 0.005615 0.012468 0.822348 -3.598726 2.291951 -1.063428 0.686502 6.075472 2.263319 11.081389 10.302983 -0.285482 0.000000 0.000000 0.000000 -9.229770 4.349749 6.129444 7.610881 -2.828718 -5.532429 6.336623 -4.110167 -7.572757 0.000000 0.000000 0.000000 -5.365275 -1.132686 -6.271856 14.414573 16.861253 -7.475073 -98.168875 -44.012933 -141.390875 0.000000 0.000000 0.000000 -6.272038 1.260041 -3.147765 -0.862971 -2.766498 2.036302 7.153640 2.661293 6.892388 0.000000 0.000000 0.000000 -8.088312 2.779902 5.273509 0.393225 0.457653 -5.277884 2.471056 -2.953153 -2.951999 0.000000 0.000000 0.000000
0.000000 0.000000 0.000000 0.003317 -0.449353 1.402840 1.228799 1.197826 -2.150280 0.889849 4.996697 2.987628 15.042893 13.818147 -0.909658 0.000000 0.000000 0.000000 -2.292353 1.413924 8.168585 23.442692 -8.368668 -5.333087 13.106047 -6.844095 -10.012184 0.000000 0.000000 0.000000 0.244297 4.672728 -8.449511 12.036740 13.931952 -7.363113 -101.215031 -44.711317 -142.677604 0.000000 0.000000 0.000000 -5.938179 1.175600 -3.115258 0.123182 -3.004180 2.480163 7.370187 3.387958 8.094445 0.000000 0.000000 0.000000 -7.806427 2.827732 5.301345 3.287568 0.281880 -4.704689 3.611562 -3.508288 -3.665837 0.000000 0.000000 0.000000
0.000000 0.000000 0.000000 0.019632 -0.751092 2.948834 2.536717 1.004512 -2.586750 1.151341 4.345129 3.898795 15.387814 14.965151 0.114922 0.000000 0.000000 0.000000 6.684918 -1.925766 11.266083 35.414645 -13.655316 -7.505510 14.788167 -12.391312 -19.396384 0.000000 0.000000 0.000000 5.450235 9.675972 -11.044469 20.561032 22.235609 -11.815768 -104.052452 -48.844261 -140.967661 0.000000 0.000000 0.000000 -2.437017 0.265643 -3.131900 4.213590 -2.834064 3.424875 8.080934 4.249583 9.609534 0.000000 0.000000 0.000000 -10.152523 2.446379 5.084036 -2.132143 0.298324 -2.691841 -0.827996 -6.174075 -4.580186 0.000000 0.000000 0.000000
0.000000 0.000000 0.000000 0.036976 -1.097031 4.015588 6.597469 -0.218277 -3.122280 1.513658 3.298490 5.092609 15.704128 15.007552 -0.248904 0.000000 0.000000 0.000000 12.536148 -3.932205 12.728702 33.221762 -14.407608 -11.802693 14.136838 -14.887925 -24.323993 0.000000 0.000000 0.000000 14.038496 16.591418 -15.242438 19.199000 19.416438 -14.354906 -111.842080 -49.717768 -145.194037 0.000000 0.000000 0.000000 0.578696 -0.490244 -2.880447 4.633672 -2.843543 3.548185 6.287764 4.345747 9.376035 0.000000 0.000000 0.000000 -11.301503 1.885154 4.304094 -8.694596 0.102199 -0.495219 -4.226658 -5.949702 -3.546947 0.000000 0.000000 0.000000
0.000000 0.000000 0.000000 0.049921 -1.855690 4.260185 10.955559 -1.576463 -3.594624 1.485176 1.786727 4.863523 14.585636 11.816763 -2.977043 0.000000 0.000000 0.000000 12.298589 -3.285085 15.910800 34.103560 -16.685322 -16.506216 12.314687 -17.785686 -30.978199 0.000000 0.000000 0.000000 5.844913 12.409562 -17.647035 17.519912 17.536617 -14.348618 -113.057350 -46.750611 -148.102898 0.000000 0.000000 0.000000 1.418675 -0.673917 -2.619892 5.632988 -2.689758 3.687623 5.835239 3.970128 8.663001 0.000000 0.000000 0.000000 -11.139794 0.499308 1.830355 -12.486708 -0.686170 3.539851 -6.007917 -4.844982 -2.121723 0.000000 0.000000 0.000000
0.000000 0.000000 0.000000 0.060138 -2.274229 4.459102 17.864253 -3.818428 -4.089085 1.582684 0.515792 5.076599 13.030391 10.321562 -2.973036 0.000000 0.000000 0.000000 22.026077 -7.073722 14.465309 46.234591 -22.582713 -15.856427 18.383030 -21.051944 -31.308449 0.000000 0.000000 0.000000 8.360259 15.204397 -21.742428 20.625312 20.280599 -15.862820 -109.312321 -50.505544 -143.008061 0.000000 0.000000 0.000000 2.716951 -0.951738 -2.225374 9.133962 -2.389257 4.399165 6.803692 3.162647 7.597094 0.000000 0.000000 0.000000 -11.186773 -0.239396 0.527729 -14.906770 -1.388819 6.351159 -8.063220 -2.934731 0.166657 0.000000 0.000000 0.000000
0.000000 0.000000 0.000000 0.089542 -2.231350 5.611142 17.314695 -3.908385 -3.576772 2.285303 5.831694 8.225092 28.210254 33.510878 4.215399 0.000000 0.000000 0.000000 23.975728 -7.596153 15.152316 62.269523 -30.231459 -14.075846 20.240235 -30.294383 -43.463170 0.000000 0.000000 0.000000 4.596622 12.559577 -20.113247 28.924789 28.256959 -17.806317 -112.043464 -53.170124 -142.724309 0.000000 0.000000 0.000000 2.147219 -1.044613 -3.932502 13.027533 -3.479677 6.658111 10.597657 6.874061 14.064428 0.000000 0.000000 0.000000 -10.889209 -0.475380 0.085079 -16.802330 -2.117559 8.921276 -9.388807 -2.342471 1.127715 0.000000 0.000000 0.000000
0.000000 0.000000 0.000000 0.112510 -2.263649 6.454662 18.340890 -4.517837 -3.119311 2.315478 8.882896 9.017434 39.702664 46.084683 2.259552 0.000000 0.000000 0.000000 28.521085 -8.060734 18.758836 72.044379 -35.622766 -13.527417 22.515523 -37.370942 -50.806036 0.000000 0.000000 0.000000 6.162251 13.788185 -21.084491 32.555971 30.789316 -19.938441 -118.390501 -55.623246 -145.082019 0.000000 0.000000 0.000000 1.903557 -1.215626 -5.648057 18.281035 -3.987196 9.010769 12.187371 9.166135 17.633016 0.000000 0.000000 0.000000 -10.520868 -0.592293 -0.149309 -17.686136 -3.120890 12.630632 -10.744915 -4.066313 -0.014171 0.000000 0.000000 0.000000
